PathFileType	3	(X/Y/Z)	D:\minhoCalibration\240510\subject2_KPNP\preferred\preferred04.trc
DataRate	CameraRate	NumFrames	NumMarkers	Units	OrigDataRate	OrigDataStartFrame	OrigNumFrames
200.0	200.0	21	10	mm	200.0	296	187	
Frame#	Time	Left_Ankle_Outer1			Left_Ankle_Inner1			Left_Knee_Outer1			Left_Knee_Inner1			Left_Wrist1			Right_Wrist1			Right_Knee_Inner1			Right_Knee_Outer1			Right_Ankle_Inner1			Right_Ankle_Outer1			
		X1	Y1	Z1	X2	Y2	Z2	X3	Y3	Z3	X4	Y4	Z4	X5	Y5	Z5	X6	Y6	Z6	X7	Y7	Z7	X8	Y8	Z8	X9	Y9	Z9	X10	Y10	Z10	
296	1.47	-499.41113	134.43161	-780.41595	-505.12378	140.90254	-724.87061	-319.24371	547.57556	-777.62988	-355.0058	529.03448	-690.18384	-370.41867	982.61176	-846.47815	-553.28125	1166.1239	-615.31378	-357.52966	966.17133	-231.06627	-420.96692	1032.472	-223.57321	-542.01416	680.54041	24.124819	-588.6709	752.50671	68.86013
297	1.475	-498.5152	134.67517	-782.44922	-504.88538	140.95937	-726.97906	-318.03448	547.45374	-777.065	-354.37085	529.01105	-690.05542	-367.69128	984.03656	-846.22168	-555.43933	1164.2883	-616.50671	-361.26932	957.28418	-232.70764	-425.83618	1022.9368	-224.35454	-550.34814	663.65265	10.234023	-598.04266	734.17499	56.453167
298	1.48	-497.74805	134.65967	-784.30249	-504.69476	141.24277	-728.88556	-317.07614	547.15869	-776.68921	-354.48459	528.75323	-690.13513	-365.03149	985.46704	-845.93146	-557.56207	1162.4351	-617.73981	-365.41846	947.80865	-234.43578	-431.00723	1012.9915	-225.05013	-560.10181	646.24158	-2.2326736	-606.93628	715.99719	43.593395
299	1.485	-497.00107	134.65906	-786.18805	-504.4465	141.29604	-730.79767	-316.24832	546.90387	-776.43365	-354.62964	528.36261	-690.11157	-362.29745	986.97058	-845.56848	-559.74231	1160.6431	-619.03955	-369.87317	937.86987	-236.0896	-436.58841	1002.4791	-225.64177	-565.72058	630.1593	-17.911964	-615.61542	697.75555	30.667561
300	1.49	-496.12854	134.52135	-788.36462	-504.33881	141.33687	-732.70612	-315.57666	546.57446	-776.2774	-354.64493	528.17499	-690.27649	-359.71597	988.39282	-844.96716	-561.99524	1158.9325	-620.39948	-374.51889	927.50873	-237.84128	-441.99091	991.83282	-226.4967	-573.25726	613.06445	-32.04052	-624.05115	679.4386	17.291325
301	1.495	-495.49356	134.65956	-790.1524	-504.19699	141.19821	-734.9201	-315.01834	546.34808	-776.20581	-354.61108	528.03424	-690.53656	-357.03247	989.8114	-844.32275	-564.2821	1157.2964	-621.7995	-379.3912	916.86017	-239.66335	-447.66241	980.71545	-227.36571	-579.21027	596.82556	-47.063343	-632.0376	661.14069	3.9137919
302	1.5	-494.47943	134.53761	-792.61816	-504.1452	140.95807	-736.9895	-314.64569	546.1593	-776.17175	-354.62088	527.87402	-690.84937	-354.39407	991.18878	-843.53522	-566.70825	1155.6527	-623.35168	-384.14856	905.96222	-241.7394	-453.45673	969.28998	-228.47038	-585.69775	580.33691	-61.80991	-639.77393	643.14191	-9.804903
303	1.505	-493.9342	134.4682	-794.34717	-503.89148	140.81393	-738.71503	-314.31534	546.04443	-776.16443	-355.44202	527.70526	-691.93567	-351.81912	992.48596	-842.55304	-569.20648	1153.9362	-624.88818	-389.54822	894.70685	-244.07616	-459.31107	957.63525	-229.8611	-590.49969	564.39655	-78.221199	-647.33215	625.14093	-23.661037
304	1.51	-493.32892	134.12997	-796.27515	-504.15634	140.64345	-740.41956	-314.17572	545.90869	-776.16205	-354.92285	527.7403	-691.75635	-349.24463	993.73779	-841.40918	-571.83038	1152.0566	-626.59875	-395.14432	883.28644	-246.66609	-465.2868	945.81696	-231.55904	-597.88226	547.72583	-91.635452	-654.53235	607.11444	-37.890793
305	1.515	-492.85889	133.45551	-798.24121	-504.10516	140.07446	-742.84686	-314.03333	545.80542	-776.24438	-355.60367	527.41833	-692.80151	-346.68942	994.90228	-840.19495	-574.49884	1149.9718	-628.33789	-400.93985	871.64178	-249.5768	-471.23108	933.86676	-233.97636	-603.60071	531.64807	-106.80218	-661.51404	589.27942	-52.49675
306	1.52	-492.48044	132.8951	-800.21051	-504.33923	139.36322	-745.15417	-313.93439	545.5813	-776.35504	-355.79987	527.2478	-693.24365	-344.06119	996.11145	-838.88501	-577.13385	1147.5483	-630.16754	-406.87863	860.03149	-252.77042	-477.42001	921.922	-236.40163	-607.82379	515.79437	-123.61387	-668.17682	571.48395	-67.339943
307	1.525	-492.1832	132.13831	-802.06915	-504.26727	139.22386	-746.73846	-313.77249	545.31329	-776.54944	-355.49756	526.9201	-693.23505	-341.57278	997.13104	-837.49554	-579.80695	1144.8241	-632.05316	-412.85248	848.3891	-256.28574	-483.78015	909.92151	-239.28726	-612.3833	500.59546	-139.58691	-674.47125	553.79541	-82.127869
308	1.53	-492.04019	131.32629	-804.03577	-505.27435	138.25664	-749.12103	-313.67035	544.901	-776.742	-356.54346	526.35699	-694.36005	-339.17038	998.09827	-835.99573	-582.53589	1141.7164	-633.88281	-418.9761	836.87073	-260.17313	-490.29297	897.96936	-242.52628	-618.48016	484.23175	-154.20015	-681.11133	536.40411	-98.118454
309	1.535	-491.9942	130.34734	-805.82318	-505.75055	137.21307	-751.29321	-313.64801	544.34747	-776.97736	-356.09378	525.69983	-694.18134	-336.86789	998.83447	-834.53455	-585.16333	1138.2808	-635.74689	-425.19662	825.53296	-264.25571	-497.11282	886.10071	-245.88722	-622.49866	469.36722	-170.60001	-687.15485	519.31067	-113.88213
310	1.54	-491.95618	129.30443	-807.66357	-506.2334	136.29739	-753.27979	-313.68323	543.67249	-777.2406	-357.24869	524.90552	-695.38171	-334.57608	999.50348	-833.11658	-587.60004	1134.4976	-637.58997	-431.31467	814.31384	-268.6225	-503.88831	874.11029	-250.04199	-627.77246	454.14673	-185.58725	-693.08765	502.46292	-129.95995
311	1.545	-491.91107	128.10013	-809.4079	-506.74902	135.24831	-755.30554	-313.59006	542.94159	-777.59692	-358.04608	523.91443	-696.37231	-332.30801	1000.0173	-831.77142	-589.89941	1130.5175	-639.41479	-437.56152	803.28857	-273.15445	-510.81403	861.87878	-254.89789	-631.78192	439.50043	-201.84503	-698.87775	485.99277	-146.47182
312	1.55	-491.86115	126.87234	-811.12738	-507.72357	133.90057	-757.60114	-313.68304	541.98309	-778.01807	-358.76892	522.81635	-697.14264	-330.07852	1000.4439	-830.50562	-591.95441	1126.2203	-641.17236	-443.72974	792.42041	-277.91693	-517.9989	849.35797	-259.89148	-634.46332	425.76752	-219.52025	-704.55011	469.95404	-163.23708
313	1.555	-491.81668	125.56356	-812.89117	-510.27417	132.05888	-762.40253	-313.61105	541.0838	-778.47778	-359.42523	521.77216	-697.91284	-328.08606	1000.6126	-829.15613	-593.89435	1121.9312	-642.88892	-449.91354	781.61249	-282.80243	-525.29382	837.61194	-264.86151	-639.55695	411.16672	-234.47714	-709.87714	454.21365	-180.17838
314	1.56	-491.7052	124.20563	-814.58466	-510.78464	130.80148	-764.08459	-313.5614	539.89325	-778.99805	-360.16556	520.43787	-698.70923	-326.18164	1000.6667	-827.89447	-595.68915	1117.7146	-644.71259	-456.08517	770.77838	-287.92526	-532.26147	825.57703	-270.48694	-642.44257	397.7923	-252.04164	-715.20953	438.97397	-197.4073
315	1.565	-491.66043	122.85355	-816.17859	-511.29095	129.54913	-765.82159	-313.32037	538.74597	-779.45557	-360.74808	519.0119	-699.48267	-324.41278	1000.5952	-826.59332	-597.29474	1113.3002	-646.33704	-462.3541	759.97833	-293.29272	-539.39062	813.49268	-276.40106	-646.56696	384.53204	-267.58139	-720.14215	424.27002	-214.75273
316	1.57	-491.54495	121.54245	-817.67664	-511.63989	128.40564	-767.57623	-312.91949	537.48322	-779.93616	-361.30219	517.57996	-700.29498	-322.81732	1000.3439	-825.22809	-598.78528	1109.1442	-647.9978	-468.55786	749.16937	-299.07623	-546.36255	801.84277	-282.54758	-649.21777	372.19748	-284.8941	-723.83118	411.77548	-230.25182
